# xmcd CD database file
#
# Track frame offsets:
#	150
#	5582
#	25505
#	43465
#	64495
#	84132
#	100997
#	117472
#	131725
#	153445
#	168942
#	185365
#	202062
#	224667
#	246737
#	271045
#
# Disc length: 3986 seconds
#
# Revision: 2
# Processed by: cddbd v1.5.2PL0 Copyright (c) Steve Scherf et al.
# Submitted via: CD2WAV32(JP) R3.22
#
DISCID=ec0f9010
DTITLE=湘南乃風 - REAL RIDERS
DYEAR=2005
DGENRE=Hip-Hop
TTITLE0=Intro
TTITLE1=Wild Speed
TTITLE2=Real or Fake
TTITLE3=Real Riders
TTITLE4=N.O.S -New Old Stock- feat.NG HEAD
TTITLE5=Another World  feat.RYO the SKYWAKER
TTITLE6=How we get down feat.BOOGIE MAN and VADER
TTITLE7=次へ
TTITLE8=行かねば feat.TRUTHFUL from FIRE BALL
TTITLE9=Ride On Beat
TTITLE10=Pride In the Ring
TTITLE11=We Got A Power feat.PRIMAL from MSC and ARK from BACKGAMMON
TTITLE12=CRY feat.MINMI
TTITLE13=Under the Moonlight
TTITLE14=CLASSIC
TTITLE15=BONUS TRACK KRAZY MIX mixed by BK
EXTD=
EXTT0=
EXTT1=
EXTT2=
EXTT3=
EXTT4=
EXTT5=
EXTT6=
EXTT7=
EXTT8=
EXTT9=
EXTT10=
EXTT11=
EXTT12=
EXTT13=
EXTT14=
EXTT15=
PLAYORDER=
